<svg width="72" height="72" viewBox="0 0 72 72" fill="none" xmlns="http://www.w3.org/2000/svg">
    <path d="M35.964 66.0149C52.518 66.0149 65.958 52.5749 65.958 36.0209C65.958 19.4669 52.518 6.0269 35.964 6.02689C19.41 6.02689 5.97301 19.4669 5.97301 36.0209C5.97301 52.5749 19.41 66.0149 35.964 66.0149ZM35.964 61.5149C21.894 61.5149 10.473 50.0909 10.473 36.0209C10.473 21.9509 21.894 10.5269 35.964 10.5269C50.034 10.5269 61.458 21.9509 61.458 36.0209C61.458 50.0909 50.034 61.5149 35.964 61.5149ZM31.38 47.3699C31.38 47.3699 26.874 42.8549 21.615 37.5929C21.177 37.1519 20.958 36.5759 20.958 35.9999C20.958 35.4239 21.177 34.8509 21.615 34.4099C26.874 29.1479 31.377 24.6359 31.377 24.6359C31.812 24.2009 32.385 23.9849 32.958 23.9849C33.531 23.9879 34.107 24.2069 34.548 24.6479C35.427 25.5269 35.433 26.9459 34.56 27.8189L28.626 33.7499L48.708 33.7499C49.95 33.7499 50.958 34.7579 50.958 35.9999C50.958 37.2419 49.95 38.2499 48.708 38.2499L28.626 38.2499L34.563 44.1869C35.43 45.0539 35.421 46.4729 34.545 47.3489C34.104 47.7899 33.528 48.0119 32.952 48.0149C32.382 48.0149 31.812 47.8019 31.38 47.3699Z" fill="white"/>
</svg>
