<svg width="52" height="51" viewBox="0 0 52 51" fill="none" xmlns="http://www.w3.org/2000/svg">
    <mask id="mask0_2411_282" style="mask-type:luminance" maskUnits="userSpaceOnUse" x="0" y="0" width="52" height="52">
        <path d="M51.0906 0.154053H0.239502V51.0051H51.0906V0.154053Z" fill="white"/>
    </mask>
    <g mask="url(#mask0_2411_282)">
        <path d="M50.0736 26.1581C50.0736 24.3551 49.9118 22.6216 49.6113 20.9573H25.665V30.7924H39.3486C38.7592 33.9706 36.968 36.6634 34.2751 38.4663V44.8458H42.4922C47.2999 40.4195 50.0736 33.9012 50.0736 26.1581Z" fill="#4285F4"/>
        <path d="M25.6649 51.0051C32.5298 51.0051 38.2851 48.7282 42.4917 44.8452L34.2747 38.4657C31.9981 39.9912 29.0856 40.8926 25.6649 40.8926C19.0425 40.8926 13.4375 36.42 11.438 30.4104H2.9436V36.9979C7.12738 45.3075 15.7258 51.0051 25.6649 51.0051Z" fill="#34A853"/>
        <path d="M11.4382 30.4106C10.9297 28.885 10.6408 27.2555 10.6408 25.5797C10.6408 23.9039 10.9297 22.2744 11.4382 20.7489V14.1614H2.94376C1.22194 17.5938 0.239502 21.4771 0.239502 25.5797C0.239502 29.6824 1.22194 33.5656 2.94376 36.9981L11.4382 30.4106Z" fill="#FBBC04"/>
        <path d="M25.6649 10.2665C29.3976 10.2665 32.7492 11.5493 35.3843 14.0687L42.6768 6.77613C38.2737 2.67347 32.5181 0.154053 25.6649 0.154053C15.7258 0.154053 7.12737 5.85166 2.9436 14.1612L11.438 20.7487C13.4375 14.7392 19.0425 10.2665 25.6649 10.2665Z" fill="#E94235"/>
    </g>
</svg>
