<svg width="478" height="179" viewBox="0 0 478 179" fill="none" xmlns="http://www.w3.org/2000/svg">
    <path d="M128.315 45.0035C146.826 30.3058 176.437 36.6399 193.295 51.9876C208.183 65.5448 216.747 89.4217 206.732 110.061C200.501 122.907 187.449 133.723 171.754 135.728C144.757 139.168 120.149 115.224 114.951 90.74C114.504 88.6246 108.964 60.3757 128.321 45.0035H128.315Z" fill="#FFF2EF"/>
    <path d="M146.508 25.3389C159.137 20.2435 177.098 13.0019 174.753 7.17679C172.568 1.7441 152.715 -2.45613 138.054 1.65212C117.877 7.30556 109.399 28.1595 115.104 32.7276C119.475 36.235 132.967 30.79 146.508 25.3328V25.3389Z" fill="#398C22"/>
    <path d="M48.1035 37.7559C55.2964 37.7559 61.8465 38.9761 67.766 41.4226C73.6795 43.8692 78.7665 47.2845 83.0394 51.681C87.3062 56.0774 90.5996 61.3016 92.9136 67.3414C95.2275 73.3873 96.3233 79.9543 96.207 87.0365C96.3294 93.996 95.2642 100.502 93.0054 106.548C90.7465 112.593 87.5204 117.848 83.3149 122.3C79.1094 126.758 74.0774 130.241 68.2252 132.742C62.3729 135.244 55.9085 136.495 48.8381 136.495H47.375C41.5228 136.495 35.793 135.244 30.1856 132.742C24.5782 130.241 19.8217 126.85 15.9223 122.576V179H0V39.4053H15.7264V51.8649C19.2585 48.0817 23.7395 44.7828 29.1694 41.9745C34.5931 39.1662 40.9045 37.762 48.0974 37.762L48.1035 37.7559ZM71.5125 111.398V111.214C74.3162 108.405 76.5077 104.892 78.0993 100.68C79.6848 96.467 80.4133 91.9786 80.297 87.2143V87.0303C80.4194 82.266 79.6848 77.753 78.0993 73.4731C76.5138 69.1993 74.3162 65.6613 71.5125 62.8468C68.8312 60.0385 65.4766 57.8434 61.4547 56.2491C57.4328 54.661 53.1599 53.87 48.6544 53.87H47.375C42.8634 53.87 38.6273 54.6671 34.6666 56.2491C30.6998 57.8372 27.3819 60.0385 24.7006 62.8468H24.517C21.7133 65.6552 19.5463 69.1993 18.022 73.4731C16.4977 77.7469 15.7937 82.266 15.9161 87.0303V87.2143C15.7937 91.9786 16.4916 96.4977 18.022 100.771C19.5463 105.045 21.7072 108.589 24.517 111.398H24.7006C27.5043 114.206 30.9447 116.407 35.0339 117.995C39.117 119.584 43.4756 120.375 48.1096 120.375C52.7437 120.375 57.1022 119.584 61.1853 117.995C65.2684 116.407 68.7149 114.212 71.5186 111.398H71.5125Z" fill="#FFF2EF"/>
    <path d="M328.577 37.7561C338.818 37.7561 347.474 41.5455 354.544 49.1121C361.37 56.6847 364.786 67.2497 364.786 80.8069V134.852H348.876V80.8069C348.876 74.945 348.172 70.242 346.77 66.704C345.368 63.166 343.63 60.4496 341.561 58.5488C339.485 56.6541 337.263 55.4032 334.888 54.7962C332.513 54.1891 330.407 53.8825 328.577 53.8825C326.991 53.8825 324.946 54.0972 322.449 54.5264C319.945 54.9556 317.448 55.9305 314.95 57.4573C312.446 58.9841 310.255 61.1854 308.363 64.0551C306.472 66.9247 305.223 70.8674 304.617 75.8709C304.617 76.4841 304.647 78.2255 304.708 81.089C304.77 83.9586 304.8 87.3188 304.8 91.1634V134.858H288.89V80.813C288.89 74.9511 288.186 70.2481 286.784 66.7101C285.383 63.1721 283.644 60.4557 281.575 58.5549C279.5 56.6602 277.308 55.4093 274.988 54.8023C272.668 54.1953 270.538 53.8887 268.585 53.8887C266.755 53.8887 264.471 54.1339 261.729 54.6245C258.986 55.115 256.336 56.2739 253.771 58.1073C251.212 59.9407 249.014 62.6264 247.184 66.1705C245.354 69.7146 244.441 74.479 244.441 80.4574V134.864H228.531V39.4056H244.074V48.7503C247.123 45.4514 250.838 42.7964 255.234 40.7791C259.623 38.7617 264.073 37.7561 268.585 37.7561C273.947 37.7561 278.735 38.6698 282.94 40.5031C287.146 42.3365 291.014 45.2062 294.553 49.1121C295.287 49.9705 295.985 50.8535 296.659 51.7671C297.326 52.6807 297.969 53.6311 298.581 54.6061L299.132 54.0542C302.67 49.1734 307.145 45.2307 312.575 42.2384C317.998 39.2461 323.337 37.75 328.577 37.75V37.7561Z" fill="#FFF2EF"/>
    <path d="M429.528 37.7559C436.721 37.6332 443.271 38.8289 449.19 41.3307C455.104 43.8324 460.191 47.3152 464.464 51.773C468.731 56.2307 472.024 61.4795 474.338 67.5254C476.652 73.5712 477.748 80.1383 477.631 87.2204C477.754 94.1799 476.652 100.655 474.338 106.64C472.018 112.624 468.786 117.848 464.647 122.3C460.503 126.758 455.502 130.241 449.65 132.742C443.797 135.244 437.333 136.495 430.262 136.495H428.799C421.729 136.495 415.265 135.244 409.412 132.742C403.56 130.241 398.528 126.758 394.323 122.3C390.117 117.842 386.885 112.587 384.626 106.548C382.367 100.502 381.302 93.996 381.424 87.0365C381.302 79.9543 382.398 73.3873 384.718 67.3414C387.032 61.2955 390.325 56.0774 394.592 51.681C398.859 47.2846 403.976 43.8324 409.957 41.3307C415.932 38.8289 422.451 37.6394 429.528 37.7559ZM461.715 87.0365C461.838 82.2721 461.134 77.7837 459.609 73.5712C458.085 69.3587 455.918 65.8514 453.114 63.0369L452.931 62.853C450.127 60.0447 446.711 57.8495 442.689 56.2553C438.667 54.6671 434.333 53.8762 429.705 53.8762H428.793C424.282 53.8762 420.046 54.6733 416.085 56.2553C412.124 57.8434 408.8 60.0447 406.119 62.853H405.935C403.132 65.6613 400.965 69.2054 399.44 73.4792C397.916 77.7531 397.212 82.2721 397.334 87.0365C397.212 91.8008 397.91 96.3199 399.44 100.594C400.965 104.867 403.125 108.412 405.935 111.22L406.119 111.404C408.923 114.212 412.338 116.414 416.36 118.002C420.382 119.59 424.71 120.381 429.344 120.381H429.528C434.162 120.381 438.52 119.59 442.604 118.002C446.687 116.414 450.133 114.218 452.937 111.404C455.741 108.596 457.938 105.058 459.524 100.778C461.109 96.5038 461.838 91.9848 461.721 87.2204V87.0365H461.715Z" fill="#FFF2EF"/>
</svg>
