<svg width="646" height="501" viewBox="0 0 646 501" fill="none" xmlns="http://www.w3.org/2000/svg">
    <g filter="url(#filter0_d_2415_196)">
        <mask id="mask0_2415_196" style="mask-type:alpha" maskUnits="userSpaceOnUse" x="14" y="14" width="618" height="473">
            <rect x="14" y="14" width="618" height="473" rx="33" fill="#D9D9D9"/>
        </mask>
        <g mask="url(#mask0_2415_196)">
            <g filter="url(#filter1_d_2415_196)">
                <path d="M-25.9568 -38.7576H659.526V1172.85H-25.9568V-38.7576Z" fill="url(#paint0_linear_2415_196)"/>
            </g>
            <g opacity="0.25">
                <path d="M230.226 567.998C411.885 421.436 702.455 484.598 867.894 637.641C1013.99 772.83 1098.03 1010.92 999.752 1216.74C938.599 1344.83 810.525 1452.69 656.499 1472.68C391.581 1506.99 150.09 1268.22 99.0886 1024.07C94.7033 1002.98 40.3379 721.286 230.286 567.998H230.226Z" fill="#F66337"/>
                <path d="M356.081 401.262C478.974 350.824 653.753 279.143 630.937 221.482C609.671 167.706 416.485 126.13 273.815 166.796C77.4714 222.757 -5.03329 429.182 50.4861 474.4C93.0192 509.117 224.312 455.22 356.081 401.201V401.262Z" fill="#F66337"/>
            </g>
        </g>
    </g>
    <path d="M287.64 69.6042C293.647 64.8346 303.256 66.8901 308.727 71.8706C313.558 76.2701 316.337 84.0184 313.087 90.7161C311.065 94.8848 306.83 98.3948 301.736 99.0455C292.976 100.162 284.99 92.3915 283.303 84.4462C283.158 83.7597 281.36 74.5927 287.642 69.6042H287.64Z" fill="#FFF2EF"/>
    <path d="M293.544 63.2228C297.642 61.5692 303.47 59.2193 302.709 57.329C302 55.566 295.558 54.203 290.8 55.5361C284.253 57.3707 281.501 64.1381 283.353 65.6205C284.771 66.7587 289.149 64.9917 293.544 63.2208V63.2228Z" fill="#398C22"/>
    <path d="M261.61 67.2522C263.944 67.2522 266.07 67.6482 267.991 68.4421C269.91 69.236 271.561 70.3444 272.947 71.7711C274.332 73.1978 275.401 74.8931 276.152 76.853C276.902 78.815 277.258 80.9461 277.22 83.2443C277.26 85.5028 276.914 87.614 276.181 89.5759C275.448 91.5379 274.401 93.2431 273.037 94.6878C271.672 96.1343 270.039 97.2646 268.14 98.0764C266.241 98.8882 264.143 99.2942 261.849 99.2942H261.374C259.475 99.2942 257.615 98.8882 255.796 98.0764C253.976 97.2646 252.432 96.1642 251.167 94.7773V113.088H246V67.7875H251.103V71.8308C252.25 70.603 253.704 69.5325 255.466 68.6212C257.226 67.7099 259.274 67.2542 261.608 67.2542L261.61 67.2522ZM269.207 91.1499V91.0902C270.116 90.1788 270.828 89.0387 271.344 87.6717C271.859 86.3047 272.095 84.8481 272.057 83.302V83.2423C272.097 81.6963 271.859 80.2318 271.344 78.8429C270.83 77.456 270.116 76.3078 269.207 75.3945C268.337 74.4832 267.248 73.7708 265.943 73.2535C264.638 72.7381 263.251 72.4814 261.789 72.4814H261.374C259.91 72.4814 258.535 72.7401 257.25 73.2535C255.962 73.7688 254.886 74.4832 254.016 75.3945H253.956C253.046 76.3059 252.343 77.456 251.848 78.8429C251.354 80.2298 251.125 81.6963 251.165 83.2423V83.302C251.125 84.8481 251.352 86.3146 251.848 87.7015C252.343 89.0884 253.044 90.2385 253.956 91.1499H254.016C254.925 92.0612 256.042 92.7755 257.369 93.2909C258.694 93.8063 260.108 94.0629 261.612 94.0629C263.116 94.0629 264.53 93.8063 265.855 93.2909C267.18 92.7755 268.299 92.0632 269.209 91.1499H269.207Z" fill="#FFF2EF"/>
    <path d="M352.627 67.2522C355.95 67.2522 358.759 68.4819 361.054 70.9374C363.269 73.3948 364.377 76.8232 364.377 81.2227V98.7609H359.214V81.2227C359.214 79.3205 358.986 77.7943 358.531 76.6461C358.076 75.498 357.512 74.6165 356.84 73.9997C356.167 73.3848 355.446 72.9789 354.675 72.7819C353.904 72.5849 353.221 72.4854 352.627 72.4854C352.112 72.4854 351.449 72.5551 350.638 72.6944C349.826 72.8337 349.015 73.15 348.205 73.6455C347.392 74.141 346.681 74.8553 346.067 75.7865C345.454 76.7178 345.048 77.9972 344.852 79.6209C344.852 79.8199 344.862 80.385 344.882 81.3143C344.901 82.2455 344.911 83.3359 344.911 84.5835V98.7629H339.748V81.2247C339.748 79.3224 339.52 77.7963 339.065 76.6481C338.61 75.5 338.046 74.6185 337.374 74.0017C336.701 73.3868 335.99 72.9809 335.237 72.7839C334.484 72.5869 333.793 72.4874 333.159 72.4874C332.565 72.4874 331.824 72.567 330.934 72.7262C330.044 72.8854 329.184 73.2615 328.352 73.8564C327.521 74.4514 326.808 75.3229 326.214 76.473C325.62 77.6231 325.324 79.1692 325.324 81.1093V98.7649H320.161V67.7875H325.205V70.82C326.194 69.7495 327.4 68.8879 328.826 68.2332C330.251 67.5786 331.695 67.2522 333.159 67.2522C334.899 67.2522 336.453 67.5487 337.817 68.1437C339.182 68.7386 340.438 69.6699 341.586 70.9374C341.824 71.2159 342.051 71.5025 342.269 71.799C342.486 72.0954 342.694 72.4039 342.893 72.7202L343.072 72.5412C344.22 70.9573 345.672 69.6778 347.434 68.7068C349.194 67.7358 350.927 67.2502 352.627 67.2502V67.2522Z" fill="#FFF2EF"/>
    <path d="M385.387 67.252C387.721 67.2122 389.847 67.6003 391.768 68.4121C393.687 69.224 395.337 70.3542 396.724 71.8008C398.109 73.2474 399.177 74.9506 399.928 76.9126C400.679 78.8745 401.035 81.0056 400.997 83.3039C401.037 85.5623 400.679 87.6636 399.928 89.6056C399.175 91.5477 398.127 93.243 396.784 94.6876C395.439 96.1342 393.816 97.2644 391.917 98.0763C390.018 98.8881 387.92 99.294 385.625 99.294H385.15C382.856 99.294 380.758 98.8881 378.859 98.0763C376.96 97.2644 375.327 96.1342 373.962 94.6876C372.598 93.241 371.549 91.5357 370.816 89.5758C370.083 87.6138 369.737 85.5026 369.777 83.2442C369.737 80.9459 370.093 78.8149 370.846 76.8529C371.596 74.8909 372.665 73.1976 374.05 71.7709C375.434 70.3442 377.095 69.224 379.036 68.4121C380.975 67.6003 383.09 67.2142 385.387 67.252ZM395.832 83.2442C395.872 81.6981 395.643 80.2416 395.149 78.8745C394.654 77.5075 393.951 76.3694 393.041 75.456L392.981 75.3964C392.072 74.485 390.963 73.7727 389.658 73.2553C388.353 72.74 386.946 72.4833 385.445 72.4833H385.149C383.684 72.4833 382.31 72.7419 381.024 73.2553C379.739 73.7707 378.661 74.485 377.79 75.3964H377.731C376.821 76.3077 376.118 77.4578 375.623 78.8447C375.128 80.2316 374.9 81.6981 374.94 83.2442C374.9 84.7903 375.126 86.2568 375.623 87.6437C376.118 89.0306 376.819 90.1807 377.731 91.092L377.79 91.1517C378.7 92.063 379.809 92.7774 381.114 93.2927C382.419 93.8081 383.823 94.0648 385.327 94.0648H385.387C386.891 94.0648 388.305 93.8081 389.63 93.2927C390.955 92.7774 392.074 92.065 392.983 91.1517C393.893 90.2404 394.606 89.0922 395.121 87.7034C395.635 86.3165 395.872 84.85 395.834 83.3039V83.2442H395.832Z" fill="#FFF2EF"/>
    <g filter="url(#filter2_d_2415_196)">
        <path d="M192.212 331.158C163.543 272.681 197.864 198.672 248.937 164.241C294.04 133.832 363.184 126.878 412.769 166.818C443.628 191.677 465.06 233.21 461.268 275.95C454.738 349.455 376.039 398.713 307.247 396.397C301.299 396.197 222.192 392.307 192.212 331.158Z" fill="url(#paint1_linear_2415_196)"/>
    </g>
    <g filter="url(#filter3_i_2415_196)">
        <path d="M375.208 263.877C378.443 265.819 378.443 270.508 375.208 272.451L300.899 317.059C297.566 319.059 293.325 316.659 293.325 312.772L293.325 223.556C293.325 219.669 297.566 217.268 300.899 219.269L375.208 263.877Z" fill="url(#paint2_linear_2415_196)"/>
    </g>
    <path d="M222.032 444.959V433.271H223.88V444.959H222.032ZM221.576 428.807C221.576 428.439 221.712 428.127 221.984 427.871C222.256 427.599 222.584 427.463 222.968 427.463C223.336 427.463 223.656 427.599 223.928 427.871C224.2 428.127 224.336 428.439 224.336 428.807C224.336 429.191 224.2 429.511 223.928 429.767C223.672 430.023 223.352 430.151 222.968 430.151C222.584 430.151 222.256 430.023 221.984 429.767C221.712 429.511 221.576 429.191 221.576 428.807ZM237.611 437.615V444.959H235.763V437.831C235.763 436.903 235.499 436.151 234.971 435.575C234.459 434.999 233.755 434.711 232.859 434.711C231.963 434.711 231.227 435.007 230.651 435.599C230.075 436.175 229.787 436.919 229.787 437.831V444.959H227.939V433.271H229.667V434.519C230.579 433.511 231.779 433.007 233.267 433.007C234.611 433.007 235.667 433.431 236.435 434.279C237.219 435.111 237.611 436.223 237.611 437.615ZM241.532 444.959V433.271H243.38V444.959H241.532ZM241.076 428.807C241.076 428.439 241.212 428.127 241.484 427.871C241.756 427.599 242.084 427.463 242.468 427.463C242.836 427.463 243.156 427.599 243.428 427.871C243.7 428.127 243.836 428.439 243.836 428.807C243.836 429.191 243.7 429.511 243.428 429.767C243.172 430.023 242.852 430.151 242.468 430.151C242.084 430.151 241.756 430.023 241.484 429.767C241.212 429.511 241.076 429.191 241.076 428.807ZM246.599 439.103C246.567 437.439 247.159 435.999 248.375 434.783C249.591 433.567 251.039 432.975 252.719 433.007C253.727 433.007 254.647 433.231 255.479 433.679C256.311 434.127 256.999 434.751 257.543 435.551L256.223 436.607C255.295 435.343 254.135 434.711 252.743 434.711C251.543 434.711 250.535 435.143 249.719 436.007C248.903 436.855 248.495 437.887 248.495 439.103C248.495 440.335 248.903 441.383 249.719 442.247C250.535 443.095 251.543 443.519 252.743 443.519C254.119 443.519 255.271 442.895 256.199 441.647L257.519 442.679C256.367 444.375 254.767 445.223 252.719 445.223C251.023 445.223 249.575 444.631 248.375 443.447C247.191 442.247 246.599 440.799 246.599 439.103ZM260.657 444.959V433.271H262.505V444.959H260.657ZM260.201 428.807C260.201 428.439 260.337 428.127 260.609 427.871C260.881 427.599 261.209 427.463 261.593 427.463C261.961 427.463 262.281 427.599 262.553 427.871C262.825 428.127 262.961 428.439 262.961 428.807C262.961 429.191 262.825 429.511 262.553 429.767C262.297 430.023 261.977 430.151 261.593 430.151C261.209 430.151 260.881 430.023 260.609 429.767C260.337 429.511 260.201 429.191 260.201 428.807ZM275.324 437.759V444.959H273.596V443.447C272.7 444.631 271.388 445.223 269.66 445.223C268.444 445.223 267.46 444.927 266.708 444.335C265.956 443.727 265.58 442.927 265.58 441.935C265.58 440.943 265.964 440.151 266.732 439.559C267.5 438.967 268.516 438.671 269.78 438.671H273.476V437.663C273.476 436.719 273.22 435.991 272.708 435.479C272.212 434.967 271.524 434.711 270.644 434.711C269.332 434.711 268.196 435.335 267.236 436.583L266.012 435.575C267.052 433.863 268.636 433.007 270.764 433.007C272.172 433.007 273.284 433.423 274.1 434.255C274.916 435.071 275.324 436.239 275.324 437.759ZM273.476 440.471V440.183H269.996C268.316 440.183 267.476 440.735 267.476 441.839C267.476 442.415 267.7 442.871 268.148 443.207C268.612 443.527 269.196 443.687 269.9 443.687C270.876 443.687 271.716 443.375 272.42 442.751C273.124 442.127 273.476 441.367 273.476 440.471ZM285.459 433.271V434.903H284.763C283.739 434.903 282.867 435.215 282.147 435.839C281.443 436.463 281.091 437.295 281.091 438.335V444.959H279.243V433.271H280.971V434.927C281.835 433.759 283.043 433.175 284.595 433.175C284.899 433.175 285.187 433.207 285.459 433.271ZM304.337 437.615V444.959H302.489V437.831C302.489 436.903 302.225 436.151 301.697 435.575C301.185 434.999 300.481 434.711 299.585 434.711C298.689 434.711 297.953 435.007 297.377 435.599C296.801 436.175 296.513 436.919 296.513 437.831V444.959H294.665V433.271H296.393V434.519C297.305 433.511 298.505 433.007 299.993 433.007C301.337 433.007 302.393 433.431 303.161 434.279C303.945 435.111 304.337 436.223 304.337 437.615ZM307.419 439.103C307.387 437.439 307.979 435.999 309.195 434.783C310.427 433.567 311.875 432.975 313.539 433.007C315.219 432.975 316.667 433.567 317.883 434.783C319.099 435.999 319.691 437.439 319.659 439.103C319.691 440.751 319.091 442.191 317.859 443.423C316.627 444.639 315.179 445.231 313.515 445.199C311.851 445.231 310.411 444.639 309.195 443.423C307.979 442.191 307.387 440.751 307.419 439.103ZM317.763 439.127C317.763 437.879 317.355 436.831 316.539 435.983C315.739 435.135 314.739 434.711 313.539 434.711C312.339 434.711 311.331 435.135 310.515 435.983C309.715 436.815 309.315 437.863 309.315 439.127C309.315 440.359 309.715 441.399 310.515 442.247C311.331 443.079 312.331 443.495 313.515 443.495C314.699 443.495 315.699 443.071 316.515 442.223C317.347 441.375 317.763 440.343 317.763 439.127ZM330.743 433.271H332.711L327.215 445.223H326.543L321.023 433.271H322.991L326.879 442.079L330.743 433.271ZM343.667 437.759V444.959H341.939V443.447C341.043 444.631 339.731 445.223 338.003 445.223C336.787 445.223 335.803 444.927 335.051 444.335C334.299 443.727 333.923 442.927 333.923 441.935C333.923 440.943 334.307 440.151 335.075 439.559C335.843 438.967 336.859 438.671 338.123 438.671H341.819V437.663C341.819 436.719 341.563 435.991 341.051 435.479C340.555 434.967 339.867 434.711 338.987 434.711C337.675 434.711 336.539 435.335 335.579 436.583L334.355 435.575C335.395 433.863 336.979 433.007 339.107 433.007C340.515 433.007 341.627 433.423 342.443 434.255C343.259 435.071 343.667 436.239 343.667 437.759ZM341.819 440.471V440.183H338.339C336.659 440.183 335.819 440.735 335.819 441.839C335.819 442.415 336.043 442.871 336.491 443.207C336.955 443.527 337.539 443.687 338.243 443.687C339.219 443.687 340.059 443.375 340.763 442.751C341.467 442.127 341.819 441.367 341.819 440.471ZM353.21 442.943L354.386 441.719C354.994 442.343 355.546 442.799 356.042 443.087C356.554 443.375 357.122 443.519 357.746 443.519C358.402 443.519 358.938 443.375 359.354 443.087C359.77 442.783 359.978 442.375 359.978 441.863C359.978 441.415 359.826 441.071 359.522 440.831C359.234 440.575 358.706 440.295 357.938 439.991L356.81 439.511C355.802 439.095 355.066 438.639 354.602 438.143C354.138 437.647 353.906 437.023 353.906 436.271C353.906 435.279 354.274 434.487 355.01 433.895C355.762 433.303 356.706 433.007 357.842 433.007C359.426 433.007 360.73 433.623 361.754 434.855L360.626 436.007C359.762 435.143 358.802 434.711 357.746 434.711C357.154 434.711 356.682 434.839 356.33 435.095C355.978 435.351 355.802 435.711 355.802 436.175C355.802 436.543 355.93 436.847 356.186 437.087C356.458 437.311 356.962 437.575 357.698 437.879L358.778 438.335C359.898 438.815 360.69 439.319 361.154 439.847C361.634 440.359 361.874 441.007 361.874 441.791C361.874 442.879 361.474 443.727 360.674 444.335C359.89 444.927 358.922 445.223 357.77 445.223C355.898 445.223 354.378 444.463 353.21 442.943ZM375.532 439.679H366.292C366.404 440.831 366.86 441.759 367.66 442.463C368.46 443.167 369.436 443.519 370.588 443.519C371.916 443.519 373.108 442.991 374.164 441.935L375.244 443.183C373.932 444.543 372.372 445.223 370.564 445.223C368.82 445.223 367.348 444.639 366.148 443.471C364.964 442.287 364.372 440.839 364.372 439.127C364.372 437.431 364.948 435.991 366.1 434.807C367.268 433.607 368.684 433.007 370.348 433.007C371.868 433.007 373.132 433.503 374.14 434.495C375.164 435.487 375.676 436.751 375.676 438.287C375.676 438.735 375.628 439.199 375.532 439.679ZM366.364 438.047H373.78C373.764 437.023 373.428 436.207 372.772 435.599C372.116 434.991 371.292 434.687 370.3 434.687C369.324 434.687 368.476 434.999 367.756 435.623C367.036 436.231 366.572 437.039 366.364 438.047ZM377.819 442.943L378.995 441.719C379.603 442.343 380.155 442.799 380.651 443.087C381.163 443.375 381.731 443.519 382.355 443.519C383.011 443.519 383.547 443.375 383.963 443.087C384.379 442.783 384.587 442.375 384.587 441.863C384.587 441.415 384.435 441.071 384.131 440.831C383.843 440.575 383.315 440.295 382.547 439.991L381.419 439.511C380.411 439.095 379.675 438.639 379.211 438.143C378.747 437.647 378.515 437.023 378.515 436.271C378.515 435.279 378.883 434.487 379.619 433.895C380.371 433.303 381.315 433.007 382.451 433.007C384.035 433.007 385.339 433.623 386.363 434.855L385.235 436.007C384.371 435.143 383.411 434.711 382.355 434.711C381.763 434.711 381.291 434.839 380.939 435.095C380.587 435.351 380.411 435.711 380.411 436.175C380.411 436.543 380.539 436.847 380.795 437.087C381.067 437.311 381.571 437.575 382.307 437.879L383.387 438.335C384.507 438.815 385.299 439.319 385.763 439.847C386.243 440.359 386.483 441.007 386.483 441.791C386.483 442.879 386.083 443.727 385.283 444.335C384.499 444.927 383.531 445.223 382.379 445.223C380.507 445.223 378.987 444.463 377.819 442.943ZM388.717 442.943L389.893 441.719C390.501 442.343 391.053 442.799 391.549 443.087C392.061 443.375 392.629 443.519 393.253 443.519C393.909 443.519 394.445 443.375 394.861 443.087C395.277 442.783 395.485 442.375 395.485 441.863C395.485 441.415 395.333 441.071 395.029 440.831C394.741 440.575 394.213 440.295 393.445 439.991L392.317 439.511C391.309 439.095 390.573 438.639 390.109 438.143C389.645 437.647 389.413 437.023 389.413 436.271C389.413 435.279 389.781 434.487 390.517 433.895C391.269 433.303 392.213 433.007 393.349 433.007C394.933 433.007 396.237 433.623 397.261 434.855L396.133 436.007C395.269 435.143 394.309 434.711 393.253 434.711C392.661 434.711 392.189 434.839 391.837 435.095C391.485 435.351 391.309 435.711 391.309 436.175C391.309 436.543 391.437 436.847 391.693 437.087C391.965 437.311 392.469 437.575 393.205 437.879L394.285 438.335C395.405 438.815 396.197 439.319 396.661 439.847C397.141 440.359 397.381 441.007 397.381 441.791C397.381 442.879 396.981 443.727 396.181 444.335C395.397 444.927 394.429 445.223 393.277 445.223C391.405 445.223 389.885 444.463 388.717 442.943ZM409.48 437.759V444.959H407.752V443.447C406.856 444.631 405.544 445.223 403.816 445.223C402.6 445.223 401.616 444.927 400.864 444.335C400.112 443.727 399.736 442.927 399.736 441.935C399.736 440.943 400.12 440.151 400.888 439.559C401.656 438.967 402.672 438.671 403.936 438.671H407.632V437.663C407.632 436.719 407.376 435.991 406.864 435.479C406.368 434.967 405.68 434.711 404.8 434.711C403.488 434.711 402.352 435.335 401.392 436.583L400.168 435.575C401.208 433.863 402.792 433.007 404.92 433.007C406.328 433.007 407.44 433.423 408.256 434.255C409.072 435.071 409.48 436.239 409.48 437.759ZM407.632 440.471V440.183H404.152C402.472 440.183 401.632 440.735 401.632 441.839C401.632 442.415 401.856 442.871 402.304 443.207C402.768 443.527 403.352 443.687 404.056 443.687C405.032 443.687 405.872 443.375 406.576 442.751C407.28 442.127 407.632 441.367 407.632 440.471ZM404.992 430.031L404.368 429.503C404.352 429.487 404.28 429.431 404.152 429.335C404.024 429.239 403.936 429.175 403.888 429.143C403.84 429.111 403.76 429.071 403.648 429.023C403.552 428.975 403.456 428.951 403.36 428.951C402.912 428.951 402.688 429.279 402.688 429.935V430.343H401.152C401.136 430.247 401.128 430.047 401.128 429.743C401.128 429.007 401.312 428.407 401.68 427.943C402.064 427.479 402.56 427.247 403.168 427.247C403.744 427.247 404.288 427.455 404.8 427.871L405.424 428.399C405.84 428.767 406.176 428.951 406.432 428.951C406.88 428.951 407.104 428.623 407.104 427.967V427.559H408.64C408.656 427.655 408.664 427.855 408.664 428.159C408.664 428.895 408.472 429.495 408.088 429.959C407.72 430.423 407.232 430.655 406.624 430.655C406.064 430.655 405.52 430.447 404.992 430.031ZM412.559 439.103C412.527 437.439 413.119 435.999 414.335 434.783C415.567 433.567 417.015 432.975 418.679 433.007C420.359 432.975 421.807 433.567 423.023 434.783C424.239 435.999 424.831 437.439 424.799 439.103C424.831 440.751 424.231 442.191 422.999 443.423C421.767 444.639 420.319 445.231 418.655 445.199C416.991 445.231 415.551 444.639 414.335 443.423C413.119 442.191 412.527 440.751 412.559 439.103ZM422.903 439.127C422.903 437.879 422.495 436.831 421.679 435.983C420.879 435.135 419.879 434.711 418.679 434.711C417.479 434.711 416.471 435.135 415.655 435.983C414.855 436.815 414.455 437.863 414.455 439.127C414.455 440.359 414.855 441.399 415.655 442.247C416.471 443.079 417.471 443.495 418.655 443.495C419.839 443.495 420.839 443.071 421.655 442.223C422.487 441.375 422.903 440.343 422.903 439.127Z" fill="white"/>
    <defs>
        <filter id="filter0_d_2415_196" x="0" y="0" width="646" height="501" filterUnits="userSpaceOnUse" color-interpolation-filters="sRGB">
            <feFlood flood-opacity="0" result="BackgroundImageFix"/>
            <feColorMatrix in="SourceAlpha" type="matrix" values="0 0 0 0 0 0 0 0 0 0 0 0 0 0 0 0 0 0 127 0" result="hardAlpha"/>
            <feOffset/>
            <feGaussianBlur stdDeviation="7"/>
            <feComposite in2="hardAlpha" operator="out"/>
            <feColorMatrix type="matrix" values="0 0 0 0 0 0 0 0 0 0 0 0 0 0 0 0 0 0 0.25 0"/>
            <feBlend mode="normal" in2="BackgroundImageFix" result="effect1_dropShadow_2415_196"/>
            <feBlend mode="normal" in="SourceGraphic" in2="effect1_dropShadow_2415_196" result="shape"/>
        </filter>
        <filter id="filter1_d_2415_196" x="-69.9568" y="-82.7576" width="773.483" height="1299.61" filterUnits="userSpaceOnUse" color-interpolation-filters="sRGB">
            <feFlood flood-opacity="0" result="BackgroundImageFix"/>
            <feColorMatrix in="SourceAlpha" type="matrix" values="0 0 0 0 0 0 0 0 0 0 0 0 0 0 0 0 0 0 127 0" result="hardAlpha"/>
            <feOffset/>
            <feGaussianBlur stdDeviation="22"/>
            <feComposite in2="hardAlpha" operator="out"/>
            <feColorMatrix type="matrix" values="0 0 0 0 0 0 0 0 0 0 0 0 0 0 0 0 0 0 0.17 0"/>
            <feBlend mode="normal" in2="BackgroundImageFix" result="effect1_dropShadow_2415_196"/>
            <feBlend mode="normal" in="SourceGraphic" in2="effect1_dropShadow_2415_196" result="shape"/>
        </filter>
        <filter id="filter2_d_2415_196" x="157.798" y="115.123" width="327.904" height="305.353" filterUnits="userSpaceOnUse" color-interpolation-filters="sRGB">
            <feFlood flood-opacity="0" result="BackgroundImageFix"/>
            <feColorMatrix in="SourceAlpha" type="matrix" values="0 0 0 0 0 0 0 0 0 0 0 0 0 0 0 0 0 0 127 0" result="hardAlpha"/>
            <feOffset/>
            <feGaussianBlur stdDeviation="12"/>
            <feComposite in2="hardAlpha" operator="out"/>
            <feColorMatrix type="matrix" values="0 0 0 0 1 0 0 0 0 1 0 0 0 0 1 0 0 0 0.36 0"/>
            <feBlend mode="normal" in2="BackgroundImageFix" result="effect1_dropShadow_2415_196"/>
            <feBlend mode="normal" in="SourceGraphic" in2="effect1_dropShadow_2415_196" result="shape"/>
        </filter>
        <filter id="filter3_i_2415_196" x="293.325" y="218.548" width="84.3091" height="99.2314" filterUnits="userSpaceOnUse" color-interpolation-filters="sRGB">
            <feFlood flood-opacity="0" result="BackgroundImageFix"/>
            <feBlend mode="normal" in="SourceGraphic" in2="BackgroundImageFix" result="shape"/>
            <feColorMatrix in="SourceAlpha" type="matrix" values="0 0 0 0 0 0 0 0 0 0 0 0 0 0 0 0 0 0 127 0" result="hardAlpha"/>
            <feOffset/>
            <feGaussianBlur stdDeviation="6.5"/>
            <feComposite in2="hardAlpha" operator="arithmetic" k2="-1" k3="1"/>
            <feColorMatrix type="matrix" values="0 0 0 0 0.9 0 0 0 0 0.13125 0 0 0 0 0.13125 0 0 0 0.29 0"/>
            <feBlend mode="normal" in2="shape" result="effect1_innerShadow_2415_196"/>
        </filter>
        <linearGradient id="paint0_linear_2415_196" x1="894.426" y1="259.237" x2="19.6495" y2="1492.1" gradientUnits="userSpaceOnUse">
            <stop stop-color="#F55A2D"/>
            <stop offset="1" stop-color="#FFDABF"/>
        </linearGradient>
        <linearGradient id="paint1_linear_2415_196" x1="172.397" y1="-24.5656" x2="379.76" y2="396.031" gradientUnits="userSpaceOnUse">
            <stop stop-color="#FFCBB0"/>
            <stop offset="1" stop-color="white"/>
        </linearGradient>
        <linearGradient id="paint2_linear_2415_196" x1="337.645" y1="224.968" x2="263.591" y2="303.59" gradientUnits="userSpaceOnUse">
            <stop stop-color="#F77147"/>
            <stop offset="1" stop-color="#FBAA87"/>
        </linearGradient>
    </defs>
</svg>
