<svg width="377" height="384" viewBox="0 0 377 384" fill="none" xmlns="http://www.w3.org/2000/svg">
    <path d="M26.2756 124.547C66.7267 50.1082 173.292 29.4305 250.435 56.3663C318.564 80.166 380.308 146.864 376.221 228.964C373.683 280.062 345.8 334.04 296.835 362.68C212.603 411.912 97.8347 367.512 46.346 294.088C41.9045 287.741 -15.9961 202.386 26.2958 124.538L26.2756 124.547Z" fill="#FFF2EF"/>
    <path d="M73.0386 56.3561C100.844 45.1233 140.39 29.1594 135.228 16.318C130.416 4.34166 86.7057 -4.91767 54.425 4.1389C10.0003 16.6018 -8.66728 62.5741 3.89456 72.6444C13.5181 80.3763 43.2244 68.373 73.0386 56.3426V56.3561Z" fill="#398C22"/>
</svg>
