<svg width="1136" height="1458" viewBox="0 0 1136 1458" fill="none" xmlns="http://www.w3.org/2000/svg">
    <g opacity="0.25">
        <path d="M221.517 459.047C426.103 297.922 753.347 367.36 939.667 535.61C1104.2 684.233 1198.85 945.986 1088.17 1172.25C1019.3 1313.07 875.057 1431.65 701.591 1453.63C403.236 1491.34 131.266 1228.85 73.8278 960.438C68.8891 937.247 7.66197 627.567 221.585 459.047H221.517Z" fill="#F66337"/>
        <path d="M363.256 275.742C501.66 220.293 698.498 141.489 672.803 78.0991C648.853 18.9795 431.284 -26.728 270.607 17.9786C49.4821 79.5003 -43.4358 306.436 19.0909 356.148C66.9922 394.315 214.856 335.062 363.256 275.676V275.742Z" fill="#F66337"/>
    </g>
</svg>
